<svg class="icon icon--misc-cart" viewBox="0 0 24 24" xmlns="http://www.w3.org/2000/svg">
  <path d="M17.75 18.5a.751.751 0 010-1.5.751.751 0 010 1.5zM8 17.75a.751.751 0 01-1.5 0 .751.751 0 011.5 0zm10.25-8.37l-1.04 3.12H8V8.1l10.25 1.28zm-.5 6.12H8V14h9.75a.75.75 0 00.712-.513l1.5-4.5a.75.75 0 00-.619-.981L8 6.588V5.75A.75.75 0 007.25 5h-1.5a.75.75 0 000 1.5h.75v9.138A2.247 2.247 0 005 17.75C5 18.99 6.01 20 7.25 20s2.25-1.01 2.25-2.25c0-.265-.054-.514-.138-.75h6.276c-.089.24-.136.494-.138.75 0 1.24 1.01 2.25 2.25 2.25S20 18.99 20 17.75s-1.01-2.25-2.25-2.25z"/>
</svg>
